<?xml version="1.0" standalone="no"?>
<!DOCTYPE svg PUBLIC "-//W3C//DTD SVG 20010904//EN"
 "http://www.w3.org/TR/2001/REC-SVG-20010904/DTD/svg10.dtd">
<svg version="1.0" xmlns="http://www.w3.org/2000/svg"
 width="2048.000000pt" height="2048.000000pt" viewBox="0 0 2048.000000 2048.000000"
 preserveAspectRatio="xMidYMid meet">

<g transform="translate(0.000000,2048.000000) scale(0.100000,-0.100000)"
fill="#ffffff" stroke="none">
<path d="M9780 18469 c-536 -29 -1059 -106 -1530 -228 -376 -96 -836 -242
-985 -311 -11 -5 -83 -35 -160 -65 -756 -304 -1526 -772 -2180 -1324 -203
-171 -262 -227 -520 -486 -452 -454 -824 -920 -1156 -1450 -214 -341 -480
-854 -595 -1147 -18 -47 -40 -101 -48 -120 -61 -136 -173 -457 -261 -748 -53
-176 -172 -662 -196 -800 -106 -613 -139 -986 -139 -1554 0 -361 7 -512 36
-811 58 -609 201 -1254 406 -1840 291 -830 738 -1651 1267 -2330 932 -1195
2113 -2087 3506 -2647 368 -148 926 -319 1315 -402 132 -28 491 -89 660 -111
408 -54 1082 -80 1493 -56 1088 62 2137 336 3112 812 526 256 1029 569 1477
917 546 425 1278 1181 1628 1683 151 216 211 304 272 401 350 554 608 1072
807 1623 162 446 291 931 370 1395 72 420 101 746 108 1215 10 669 -34 1171
-157 1796 -49 251 -167 703 -235 899 -14 41 -49 143 -77 225 -120 355 -323
811 -521 1170 -148 269 -156 283 -245 424 -340 542 -683 978 -1122 1425 -641
652 -1283 1122 -2150 1574 -285 148 -680 314 -1040 437 -752 257 -1436 390
-2229 435 -210 11 -681 11 -911 -1z m985 -275 c1073 -64 2145 -361 3120 -863
512 -264 917 -529 1380 -902 156 -125 475 -413 543 -490 l54 -59 -434 2 -433
3 -5 280 -5 280 -70 52 c-255 192 -546 386 -775 516 -81 46 -361 197 -365 197
-2 0 -71 33 -152 73 -477 235 -1085 448 -1636 571 -357 81 -785 151 -803 133
-8 -7 82 -102 446 -472 321 -326 601 -613 678 -696 l44 -47 -139 40 c-210 59
-399 106 -586 144 -93 19 -175 38 -183 42 -8 4 -130 120 -271 257 -142 138
-314 304 -383 370 -68 66 -196 190 -284 275 -89 85 -184 178 -212 205 l-52 50
-194 -184 c-244 -233 -340 -325 -668 -642 -390 -376 -331 -333 -501 -368 -283
-58 -540 -122 -693 -172 -32 -10 -57 -17 -55 -15 2 3 72 74 154 158 987 1006
1033 1053 1023 1063 -17 17 -589 -84 -903 -160 -366 -87 -909 -264 -1142 -371
-28 -13 -54 -24 -57 -24 -3 0 -48 -18 -98 -41 -312 -137 -682 -330 -958 -499
-195 -119 -223 -138 -452 -303 l-208 -149 0 -284 0 -284 -442 0 -442 0 49 51
c69 70 425 387 565 501 771 634 1693 1125 2687 1432 688 213 1259 307 2088
346 207 9 428 5 770 -16z m-401 -291 c288 -279 690 -667 801 -772 82 -78 112
-112 95 -108 -61 15 -488 57 -691 68 -259 14 -665 7 -910 -15 -182 -17 -417
-44 -436 -51 -20 -7 -15 12 6 28 11 7 138 128 283 267 145 140 310 300 368
355 58 55 161 155 230 222 69 68 127 123 129 123 2 0 59 -53 125 -117z m-1304
-45 c0 -2 -260 -265 -578 -585 l-577 -582 -95 -34 c-125 -46 -282 -110 -347
-142 -29 -14 -55 -25 -58 -25 -8 0 -250 -121 -375 -188 -167 -89 -383 -217
-538 -319 l-144 -94 6 38 c3 21 15 117 26 213 11 96 35 311 55 476 19 166 35
316 35 332 0 29 7 34 148 109 656 346 1460 629 2152 758 199 37 291 50 290 43z
m2507 -18 c459 -75 1062 -245 1538 -435 181 -72 535 -232 650 -294 39 -21 111
-60 160 -86 50 -26 91 -49 92 -49 1 -1 9 -69 17 -151 15 -134 40 -343 95 -792
10 -79 14 -143 10 -143 -3 0 -49 30 -100 66 -105 75 -351 224 -368 224 -6 0
-11 4 -11 9 0 5 -10 13 -22 17 -12 3 -49 23 -83 44 -33 20 -83 48 -110 62 -28
14 -95 47 -150 75 -139 69 -361 173 -371 173 -3 0 -29 11 -57 24 -29 13 -104
43 -167 67 l-115 43 -165 165 c-188 189 -772 782 -900 914 -46 48 -80 87 -75
87 6 0 65 -9 132 -20z m-1447 -905 c0 -3 -37 -47 -83 -98 -46 -50 -135 -153
-199 -227 -64 -74 -236 -274 -383 -445 -147 -170 -322 -375 -389 -455 -67 -80
-134 -158 -148 -173 l-26 -28 -6 93 c-7 105 -36 808 -36 879 l0 47 73 16 c134
31 661 116 715 116 11 0 36 80 28 88 -10 10 -267 -19 -472 -53 -215 -36 -540
-110 -774 -176 -160 -45 -427 -132 -477 -154 -17 -8 -34 -15 -38 -15 -19 0
-390 -164 -605 -268 -149 -72 -535 -303 -751 -449 -223 -152 -554 -414 -535
-424 6 -4 34 -10 61 -13 l50 -6 90 71 c183 143 293 225 420 311 l130 87 120
-117 c66 -65 188 -180 270 -257 83 -77 186 -174 230 -217 44 -42 91 -85 105
-97 l25 -20 -85 -1 c-47 0 -202 7 -345 14 -143 8 -330 17 -415 21 -222 9 -520
23 -700 35 -85 5 -208 12 -273 16 -65 3 -117 10 -115 14 8 22 352 328 479 426
301 233 429 324 659 466 421 260 851 466 1296 622 498 174 943 274 1504 336
266 29 600 49 600 35z m570 -10 c1047 -82 1902 -332 2779 -813 337 -184 623
-376 936 -626 173 -138 504 -438 489 -443 -11 -3 -644 -38 -959 -54 -723 -35
-960 -46 -963 -44 -2 2 151 147 592 559 71 67 135 127 143 134 11 11 21 9 61
-13 70 -39 319 -220 462 -335 l125 -101 60 6 c57 6 73 11 64 18 -2 2 -85 69
-184 148 -255 205 -420 321 -660 461 -49 29 -108 64 -130 79 -83 55 -459 248
-625 322 -387 170 -785 300 -1235 402 -213 49 -567 106 -753 121 l-83 7 6 -29
c14 -60 16 -63 48 -68 18 -3 119 -17 226 -31 217 -29 527 -87 541 -101 5 -5 5
-86 0 -194 -5 -102 -14 -293 -20 -425 -6 -132 -13 -274 -16 -316 l-6 -75 -47
50 c-46 49 -425 490 -620 720 -51 61 -124 145 -161 186 -37 41 -107 122 -155
180 -49 58 -126 147 -173 198 l-84 92 74 0 c40 0 161 -7 268 -15z m-4315 -27
c-3 -13 -23 -183 -45 -378 -22 -195 -47 -419 -56 -498 l-17 -142 -336 2 -336
3 1 190 c1 105 3 224 4 265 l1 75 62 41 c34 22 152 101 262 175 168 113 449
289 462 289 2 0 1 -10 -2 -22z m4046 -179 c314 -363 451 -523 679 -790 289
-338 490 -560 522 -578 25 -14 31 -11 200 115 97 71 222 163 279 205 388 282
468 340 542 391 45 31 84 55 87 53 3 -2 7 -41 8 -87 5 -162 43 -895 52 -1017
6 -68 10 -132 10 -142 0 -17 9 -19 81 -19 44 0 257 9 472 20 923 48 1171 60
1322 65 88 4 173 8 190 10 24 3 -49 -74 -445 -470 -261 -261 -481 -475 -489
-475 -7 0 -43 29 -80 63 -134 129 -422 366 -561 463 -47 32 -86 62 -88 66 -2
5 -8 8 -12 8 -5 0 -39 21 -77 47 -186 127 -566 332 -817 440 -514 221 -1200
382 -1726 405 l-65 3 -3 -76 -3 -76 73 -7 c405 -37 610 -67 837 -122 307 -73
591 -166 591 -192 0 -15 -37 -115 -146 -397 -50 -128 -42 -124 -179 -75 -167
59 -418 122 -640 160 l-110 19 -60 65 c-33 35 -124 135 -202 220 -157 171
-152 170 -135 44 6 -41 18 -58 93 -140 47 -51 101 -111 120 -132 l34 -39 -32
6 c-17 3 -72 9 -123 13 l-91 7 3 -44 3 -44 105 -12 c58 -7 135 -17 171 -23
l65 -11 155 -176 c343 -390 429 -488 429 -494 0 -3 -33 5 -72 18 -220 73 -560
144 -753 159 l-91 7 1 -76 0 -75 130 -17 c667 -86 1303 -343 1823 -737 402
-305 773 -723 1012 -1143 325 -570 490 -1202 490 -1880 0 -869 -306 -1714
-866 -2393 -118 -144 -396 -420 -519 -518 -55 -43 -150 -115 -211 -159 l-112
-80 -4 -85 c-3 -47 -3 -87 -1 -89 15 -18 438 291 556 406 21 21 37 31 37 22 0
-17 -73 -306 -126 -499 -20 -74 -39 -151 -43 -170 l-6 -35 -233 -3 -232 -2 0
-45 0 -45 212 0 213 0 -35 -24 c-67 -45 -352 -216 -361 -216 -5 0 -9 -25 -9
-55 0 -30 2 -55 4 -55 2 0 79 44 172 98 148 85 284 173 363 234 22 17 53 18
487 18 l463 0 -83 -78 c-202 -191 -653 -528 -853 -638 l-51 -28 -314 102
c-172 56 -334 107 -360 114 -41 10 -48 16 -49 38 -2 63 -7 87 -22 117 -15 28
-17 76 -17 408 l0 377 45 59 c25 33 45 65 44 72 0 6 -74 60 -165 119 l-164
107 0 204 0 204 50 57 c28 31 50 64 50 72 0 8 -39 43 -87 77 -145 104 -133 85
-213 341 -89 285 -116 357 -245 678 -168 414 -351 803 -511 1086 l-64 112 -7
105 c-7 115 3 147 53 165 27 11 29 23 18 178 l-7 92 -88 0 -89 0 0 410 c0 380
1 410 18 419 9 5 28 36 40 69 l24 59 -30 49 c-17 27 -78 134 -136 239 -104
187 -105 190 -86 210 22 23 59 103 60 126 0 25 -39 69 -61 69 -18 0 -19 9 -19
168 l0 167 31 14 c42 19 48 40 16 67 -21 18 -25 29 -21 57 4 39 -19 69 -81
102 l-35 20 0 106 c0 93 2 108 20 124 27 24 25 44 -5 55 -25 9 -25 11 -25 124
0 104 2 115 21 127 28 19 16 45 -28 60 -24 8 -33 15 -29 26 3 8 6 47 6 86 0
65 2 73 22 82 36 16 35 44 -1 58 -26 9 -31 17 -31 44 0 22 6 36 20 43 27 14
25 36 -5 62 -24 20 -25 27 -25 122 0 56 -5 189 -10 296 -5 107 -12 298 -16
423 -7 225 -7 228 15 251 33 35 33 102 1 128 -24 19 -25 26 -29 146 -3 107 -1
126 13 134 22 12 20 50 -4 71 -17 15 -20 29 -20 116 0 75 4 101 15 111 13 11
10 21 -21 76 l-36 64 1 145 2 145 -31 0 -30 0 0 -145 c0 -143 -1 -147 -31
-206 -27 -55 -29 -63 -15 -78 12 -13 14 -35 9 -116 -5 -88 -9 -103 -29 -122
-33 -30 -29 -52 10 -66 17 -7 18 -16 11 -134 -7 -124 -7 -127 -37 -155 -22
-21 -28 -33 -23 -50 4 -13 9 -32 12 -43 3 -11 14 -28 25 -39 17 -16 19 -27 14
-85 -3 -36 -15 -253 -26 -481 -23 -480 -24 -492 -50 -515 -25 -23 -25 -37 0
-60 30 -27 25 -61 -10 -82 -37 -21 -37 -31 -4 -58 26 -21 27 -23 20 -107 -7
-77 -10 -87 -32 -97 -24 -11 -32 -39 -15 -56 5 -6 11 -57 12 -113 3 -103 3
-104 -24 -120 -32 -20 -35 -47 -7 -64 18 -12 20 -24 20 -125 l0 -113 -52 -26
c-64 -32 -70 -40 -63 -82 5 -26 1 -39 -19 -63 -30 -35 -22 -65 19 -75 l25 -6
0 -159 c0 -87 1 -162 3 -166 1 -3 -6 -7 -16 -9 -74 -11 -77 -132 -4 -211 l20
-22 -73 -128 c-41 -70 -95 -162 -121 -203 -27 -42 -55 -92 -63 -112 -15 -36
-15 -36 29 -103 l45 -67 0 -403 0 -404 -97 -3 -98 -3 0 -130 c0 -128 0 -130
23 -133 42 -6 62 -56 62 -157 l0 -90 -66 -120 c-138 -249 -378 -741 -491
-1004 -110 -258 -240 -626 -309 -874 -20 -73 -41 -138 -46 -145 -6 -7 -60 -46
-120 -88 -123 -85 -124 -86 -57 -157 22 -23 42 -51 44 -62 3 -11 4 -108 3
-215 l-3 -194 -167 -111 -167 -111 18 -30 c10 -16 28 -38 40 -48 21 -19 21
-23 21 -416 0 -351 -2 -399 -16 -411 -12 -10 -15 -28 -12 -82 l3 -69 -295 -98
c-340 -114 -282 -115 -469 7 -211 137 -522 379 -671 521 l-85 81 456 1 456 0
119 -82 c154 -105 241 -158 259 -158 11 0 15 12 15 44 l0 44 -109 74 -110 73
104 3 103 3 4 44 3 44 -129 3 -130 3 -43 165 c-24 91 -64 246 -89 345 -25 99
-48 189 -51 200 -4 14 7 9 38 -21 92 -87 340 -274 363 -274 3 0 6 39 6 88 l0
87 -42 29 c-195 138 -535 484 -729 742 -391 517 -641 1140 -725 1809 -19 150
-26 590 -12 755 39 452 139 831 335 1274 255 578 749 1154 1328 1547 95 65
296 185 380 227 158 78 434 190 585 236 163 49 584 146 637 146 2 0 3 35 3 78
l0 79 -32 -5 c-152 -19 -529 -105 -646 -147 -36 -13 -67 -23 -68 -22 -3 3 109
131 390 447 195 220 201 225 250 237 28 6 68 12 88 12 34 1 38 4 44 36 10 54
2 65 -43 55 -20 -5 -39 -7 -41 -5 -5 5 50 76 73 95 10 9 15 31 15 74 l-1 61
-57 -60 c-31 -34 -77 -83 -102 -110 -25 -28 -53 -56 -61 -63 -9 -7 -95 -28
-190 -46 -220 -43 -422 -94 -578 -147 -68 -22 -125 -38 -129 -35 -5 6 -133
330 -182 461 -22 58 -28 52 91 95 192 71 562 167 784 204 130 22 395 56 433
56 13 0 18 146 5 153 -13 7 -331 -32 -474 -58 -686 -124 -1309 -366 -1887
-732 -294 -185 -583 -408 -796 -613 l-99 -96 -471 474 c-259 260 -472 477
-474 482 -2 5 27 7 65 4 37 -3 253 -14 478 -25 714 -34 1225 -59 1370 -68 77
-4 145 -6 152 -4 6 3 14 17 17 31 7 31 31 470 50 920 8 173 16 315 18 318 2 2
56 -33 119 -78 182 -130 755 -545 862 -625 54 -40 106 -73 116 -73 16 0 325
345 561 625 46 55 114 134 150 175 37 41 165 190 285 330 273 319 388 450 396
450 3 0 84 -91 180 -201z m3764 154 c254 -154 326 -201 553 -361 l162 -114 0
-254 c0 -139 -4 -255 -8 -258 -7 -4 -439 -9 -628 -6 l-40 0 -12 108 c-6 59
-32 287 -57 507 -25 220 -45 403 -45 408 0 13 14 8 75 -30z m-5426 -465 c2
-100 26 -633 37 -810 4 -60 3 -108 -1 -108 -10 0 -147 97 -369 260 -101 74
-230 169 -287 210 -57 41 -151 110 -208 152 -57 43 -109 79 -115 81 -17 7 -7
12 109 57 167 65 413 146 575 190 80 22 161 43 180 49 78 21 77 22 79 -81z
m3091 67 c214 -52 469 -133 680 -215 74 -29 137 -55 140 -57 2 -2 -2 -8 -10
-13 -21 -13 -143 -100 -284 -205 -299 -222 -678 -495 -688 -495 -10 0 -11 -35
6 295 8 154 17 354 21 445 6 189 13 270 23 270 4 0 54 -11 112 -25z m-4194
-412 c-9 -108 -23 -393 -37 -743 -7 -162 -15 -301 -19 -309 -6 -11 -18 -4 -52
30 -24 24 -120 116 -213 204 -94 87 -213 200 -265 250 -52 51 -125 118 -162
151 -65 58 -78 74 -58 74 9 0 29 11 172 97 133 79 609 323 631 323 5 0 6 -35
3 -77z m5469 -68 c110 -55 271 -143 358 -195 l159 -94 -74 -70 c-97 -94 -348
-328 -479 -446 -57 -52 -125 -117 -151 -144 -26 -28 -50 -48 -53 -45 -3 3 -10
102 -16 220 -6 118 -19 369 -28 559 -10 190 -16 348 -14 351 4 9 66 -19 298
-136z m-8535 -950 l-5 -820 -95 -12 c-345 -43 -658 -85 -676 -89 -25 -6 -19
-30 -55 236 -12 91 -26 169 -29 173 -6 7 -165 -223 -179 -258 -2 -5 -21 -37
-41 -70 -82 -133 -255 -463 -348 -665 -224 -489 -405 -1008 -512 -1470 -66
-289 -125 -606 -143 -777 -5 -46 10 -77 35 -72 14 4 352 345 890 899 l257 265
-25 -80 c-32 -102 -157 -594 -179 -705 -9 -47 -21 -102 -26 -124 -11 -41 -2
-31 -429 -476 -417 -435 -695 -730 -704 -751 -11 -23 -22 -11 550 -604 132
-138 311 -324 398 -414 86 -90 164 -173 172 -186 8 -12 26 -80 40 -151 33
-170 105 -463 160 -646 24 -81 44 -152 44 -157 0 -5 -30 23 -67 62 -82 87
-290 301 -554 572 -108 110 -269 275 -359 368 -90 92 -169 167 -175 167 -7 0
-18 -7 -25 -16 -11 -12 -11 -33 -1 -107 41 -315 152 -809 263 -1172 67 -218
203 -574 325 -850 136 -307 246 -517 446 -850 174 -290 266 -425 288 -425 4 0
10 24 14 53 9 85 35 516 35 598 0 42 2 78 6 81 3 3 130 -37 282 -89 152 -52
298 -101 324 -109 26 -8 56 -26 67 -41 21 -25 21 -34 21 -817 0 -619 3 -796
13 -808 13 -17 191 -23 1132 -34 237 -3 433 -8 437 -12 4 -4 43 -90 86 -192
44 -102 102 -236 130 -297 l50 -113 -61 -1 c-34 0 -73 -2 -87 -4 -14 -1 -110
-6 -215 -9 -104 -4 -251 -11 -325 -17 -74 -5 -139 -9 -144 -9 -50 0 355 -283
684 -477 244 -144 733 -390 960 -483 461 -190 864 -319 1306 -419 326 -73 694
-135 710 -118 4 3 -1 18 -11 33 -26 40 -348 377 -710 742 -176 178 -321 327
-323 332 -2 4 39 -5 90 -21 181 -57 391 -111 586 -150 l197 -39 560 -560 c307
-307 556 -562 552 -567 -19 -19 -656 28 -997 73 -718 95 -1434 296 -2090 586
-688 304 -1306 677 -1855 1118 -438 353 -878 795 -1229 1234 -148 185 -241
313 -395 541 -145 215 -198 301 -361 580 -55 94 -271 531 -325 655 -32 74 -69
160 -82 190 -42 95 -179 469 -221 605 -214 687 -314 1229 -359 1945 -19 307
-2 981 32 1245 2 17 7 57 10 90 19 182 48 360 106 650 23 110 43 211 45 225 3
14 21 86 41 160 20 74 39 151 43 170 22 107 232 734 279 835 6 11 24 54 41 95
17 41 37 89 45 105 7 17 28 64 45 105 55 128 225 469 303 605 357 626 700
1099 1137 1570 103 111 183 195 184 193 1 -2 -1 -372 -4 -823z m11695 385
c281 -327 549 -695 725 -995 29 -49 70 -117 90 -150 36 -57 54 -89 142 -250
63 -115 252 -501 308 -630 149 -342 353 -951 429 -1280 27 -121 89 -417 101
-485 46 -268 61 -375 91 -650 26 -234 38 -971 20 -1248 -26 -400 -112 -948
-222 -1412 -62 -265 -263 -867 -355 -1068 -20 -42 -55 -122 -79 -177 -299
-694 -789 -1465 -1299 -2044 -61 -69 -205 -222 -321 -339 -677 -689 -1369
-1188 -2230 -1608 -863 -421 -1769 -675 -2735 -768 -180 -18 -601 -40 -645
-34 -28 4 -3 31 510 546 297 299 552 552 567 563 17 12 75 29 154 45 238 46
546 125 702 178 23 8 42 14 42 12 0 -1 -136 -139 -303 -307 -546 -550 -764
-786 -743 -806 9 -10 282 30 492 72 696 139 1310 349 1959 670 404 200 766
415 1030 611 61 45 123 95 138 112 l28 30 -53 5 c-29 4 -102 9 -163 12 -60 3
-146 8 -190 10 -44 2 -155 7 -247 11 -93 4 -168 9 -168 11 0 2 38 91 84 196
47 106 94 217 106 247 11 30 30 74 40 97 11 24 20 47 20 53 0 6 35 10 88 10
48 0 184 2 302 5 118 2 433 7 699 10 373 4 487 8 493 17 4 7 8 374 8 815 l0
802 28 19 c25 18 584 217 643 229 l26 5 7 -159 c9 -224 26 -502 32 -540 9 -60
19 -51 119 98 205 309 459 768 620 1124 288 637 498 1358 590 2024 15 102 15
116 1 129 -11 11 -21 13 -35 6 -19 -9 -231 -225 -711 -724 -383 -399 -434
-450 -437 -447 -1 2 11 44 27 93 48 140 136 483 170 659 17 88 36 173 42 189
6 16 88 108 182 205 94 97 261 271 371 386 110 116 261 273 336 350 244 252
255 265 242 290 -5 8 -232 248 -504 532 -574 601 -611 640 -622 658 -4 8 -23
90 -42 182 -47 233 -118 500 -180 682 -14 41 -25 76 -25 78 0 6 153 -148 685
-689 258 -263 474 -478 481 -478 30 0 34 26 19 136 -69 522 -219 1105 -429
1661 -179 474 -478 1066 -735 1452 l-56 84 -12 -114 c-14 -125 -41 -311 -45
-314 -4 -3 -779 103 -783 107 -2 2 -5 367 -7 812 l-3 809 129 -134 c70 -74
188 -204 261 -289z m-890 25 l-340 -334 -80 77 c-185 179 -404 366 -580 497
-22 16 -46 35 -53 42 -8 7 -23 18 -34 24 -17 9 -18 13 -7 20 8 4 329 8 713 9
385 0 702 3 705 5 2 3 7 2 10 -1 3 -3 -147 -156 -334 -339z m-9205 326 c0 -5
-38 -36 -85 -70 -134 -98 -377 -303 -538 -455 l-148 -139 -320 319 c-176 175
-325 327 -330 337 -9 16 27 17 706 17 407 0 715 -4 715 -9z m-1171 -396 c182
-181 331 -332 331 -336 0 -4 -60 -69 -133 -145 -73 -77 -157 -168 -187 -204
-30 -36 -66 -76 -78 -90 -39 -42 -216 -262 -245 -305 l-27 -40 0 729 c0 401 2
727 4 725 3 -2 154 -152 335 -334z m10781 -396 l0 -732 -57 79 c-53 73 -181
233 -321 399 -32 39 -113 126 -180 195 l-122 125 338 332 c185 183 338 333
340 333 1 0 2 -329 2 -731z m-5625 639 c-2 -18 -3 -57 -4 -85 -1 -37 -5 -53
-14 -53 -11 0 -13 18 -10 78 2 42 6 83 9 90 8 24 21 3 19 -30z m5 -347 c0
-117 -2 -140 -16 -145 -9 -3 -18 -6 -20 -6 -7 0 -4 276 3 283 3 4 12 7 20 7
10 0 13 -30 13 -139z m9 -210 c21 -14 3 -31 -33 -31 -39 0 -50 8 -35 27 13 15
47 17 68 4z m2126 -158 c293 -129 678 -358 981 -583 128 -96 383 -309 433
-364 l24 -26 -319 -2 c-175 -1 -373 -2 -440 -2 l-121 -1 -101 70 c-165 113
-248 164 -402 243 -80 41 -149 78 -155 81 -5 4 -79 38 -162 76 -84 37 -153 70
-153 73 0 13 174 471 191 504 9 16 13 16 67 -4 31 -11 102 -41 157 -65z
m-3932 65 c114 -278 197 -494 194 -502 -3 -6 -42 -26 -88 -45 -129 -53 -484
-233 -585 -298 -51 -32 -138 -89 -194 -127 -58 -39 -113 -69 -129 -69 -14 -1
-213 0 -441 1 l-415 3 56 52 c65 60 66 60 219 188 313 260 666 486 1044 670
161 78 301 138 322 139 7 0 14 -6 17 -12z m1798 -124 c3 -65 9 -191 13 -279 4
-88 11 -245 16 -350 6 -104 10 -216 10 -247 l0 -58 -64 0 c-36 0 -67 3 -69 8
-3 4 -1 50 4 102 10 119 37 656 41 810 1 63 7 121 12 128 22 30 31 1 37 -114z
m-4721 -544 c29 -483 35 -592 60 -1045 7 -110 15 -226 19 -257 4 -32 5 -58 2
-57 -3 0 -98 100 -211 221 -113 122 -274 295 -358 384 l-153 164 23 38 c52 85
175 257 297 415 l129 168 -13 42 c-7 23 -15 48 -17 56 -3 9 -17 -3 -38 -32
-19 -25 -69 -87 -111 -139 -176 -216 -526 -739 -590 -883 -5 -11 -25 -47 -44
-80 -51 -87 -265 -525 -265 -541 0 -5 -72 -180 -90 -219 -16 -35 -98 -266
-128 -365 -148 -475 -258 -1020 -265 -1309 l-2 -86 34 2 c19 1 37 6 41 10 3 4
14 73 24 153 21 176 59 420 87 555 31 155 61 279 68 287 6 7 372 -535 400
-592 l14 -29 -94 -88 c-199 -186 -480 -454 -621 -592 -82 -80 -148 -140 -149
-135 -4 38 4 259 12 349 60 689 165 1174 387 1801 22 61 46 126 55 145 17 38
71 162 113 259 38 90 230 464 300 585 31 55 64 114 73 130 21 38 28 49 178
279 211 322 474 655 733 930 l55 58 7 -38 c4 -22 21 -266 38 -544z m9620 573
c0 -5 26 -35 56 -68 394 -423 742 -905 1012 -1403 166 -305 190 -353 282 -567
229 -529 347 -923 439 -1455 54 -315 94 -653 106 -909 l7 -134 -32 27 c-18 15
-137 127 -263 249 -127 122 -308 296 -401 386 -94 90 -172 168 -174 172 -4 9
397 615 406 612 22 -7 129 -574 166 -881 8 -62 16 -115 19 -118 2 -3 22 -8 42
-11 l38 -6 -6 101 c-19 284 -103 724 -212 1112 -61 215 -105 346 -187 550 -39
96 -82 204 -96 240 -78 199 -422 827 -585 1070 -75 111 -248 344 -326 438 -47
57 -96 117 -107 134 -25 34 -31 29 -39 -38 -6 -48 -6 -50 55 -129 34 -44 76
-99 94 -123 17 -23 54 -72 82 -110 42 -56 174 -249 197 -288 3 -6 -13 -31 -36
-56 -23 -25 -89 -97 -147 -159 -58 -63 -134 -145 -170 -184 -37 -38 -91 -97
-121 -130 -29 -32 -92 -100 -138 -150 -47 -49 -89 -94 -94 -100 -5 -6 -7 17
-3 60 3 39 8 129 11 200 3 72 10 191 15 265 5 74 12 182 15 240 3 58 10 166
15 240 5 74 14 212 20 305 33 530 40 625 51 625 5 0 9 -3 9 -7z m-8671 -1041
c-193 -198 -369 -421 -554 -702 -143 -216 -185 -289 -290 -495 -94 -186 -114
-230 -185 -400 -23 -55 -49 -117 -58 -138 -16 -39 -224 -247 -246 -247 -13 0
-92 92 -251 290 -60 74 -163 203 -230 285 -212 262 -225 279 -225 285 0 3 165
14 368 24 202 9 390 19 417 21 28 2 104 7 170 10 178 8 289 17 299 23 10 6 3
284 -14 527 -5 83 -19 305 -30 495 -11 190 -22 379 -25 420 -2 41 -7 122 -10
180 -4 58 -11 166 -16 240 -5 74 -9 155 -9 180 l0 45 482 -483 482 -482 -75
-78z m8542 819 c-13 -211 -17 -277 -31 -481 -5 -80 -16 -264 -25 -410 -8 -146
-17 -305 -20 -355 -19 -303 -34 -619 -31 -623 5 -5 50 -7 301 -17 105 -4 197
-9 205 -10 8 -2 105 -6 215 -11 110 -4 202 -8 205 -9 3 -1 83 -5 178 -9 94 -5
172 -10 172 -12 0 -4 -87 -111 -325 -398 -55 -67 -118 -143 -140 -171 -165
-203 -227 -280 -235 -294 -10 -18 -16 -13 -171 139 -86 85 -86 85 -139 220
-93 238 -282 610 -422 827 -161 253 -463 642 -646 833 l-43 45 477 475 c298
296 479 470 482 461 3 -8 -1 -98 -7 -200z m-5513 -68 c-28 -31 -265 -301 -396
-452 -45 -52 -97 -114 -115 -138 -18 -23 -35 -43 -39 -43 -3 0 -23 44 -44 98
-31 81 -123 309 -140 348 -6 13 174 75 360 124 99 26 357 85 390 89 6 1 -2
-11 -16 -26z m1752 -8 c135 -28 355 -87 490 -133 68 -23 85 -33 84 -48 -1 -10
-32 -98 -68 -194 -102 -270 -103 -272 -127 -229 -6 12 -75 94 -153 183 -333
379 -397 457 -374 451 13 -2 79 -16 148 -30z m-2479 -441 c43 -113 79 -210 79
-216 0 -9 -979 -1 -989 9 -28 24 427 281 699 394 96 39 116 45 123 33 5 -8 44
-107 88 -220z m3273 186 c119 -50 340 -160 456 -227 134 -78 251 -156 242
-164 -11 -10 -992 -22 -992 -12 0 8 116 316 155 411 10 24 23 41 29 38 6 -2
55 -23 110 -46z m-8297 -132 c6 -46 10 -85 8 -87 -5 -4 -129 -19 -133 -16 -5
4 102 185 109 185 3 0 10 -37 16 -82z m13173 -5 c25 -42 47 -81 48 -85 5 -10
-115 -10 -122 0 -6 10 15 162 23 162 3 0 26 -35 51 -77z m-740 -88 c102 -13
268 -37 369 -52 l183 -27 -5 -50 c-3 -28 -31 -215 -62 -416 -30 -201 -61 -403
-67 -449 l-11 -84 -83 167 c-161 322 -313 585 -480 829 -41 59 -74 109 -74
111 0 2 10 2 23 0 12 -2 105 -15 207 -29z m-11602 -77 c-192 -284 -432 -700
-528 -921 -14 -31 -28 -57 -31 -57 -6 0 -29 136 -98 600 -50 331 -55 380 -45
380 5 0 122 16 259 35 322 45 454 62 487 64 26 1 24 -2 -44 -101z m-792 -99
c19 -140 94 -628 109 -714 29 -163 47 -301 42 -335 -6 -39 -61 -188 -80 -214
-11 -15 -15 -14 -47 8 -19 13 -176 117 -347 232 -172 114 -313 214 -313 221 0
14 33 96 77 193 14 30 41 91 60 135 48 108 251 507 268 524 11 12 184 42 210
36 6 -1 15 -40 21 -86z m13171 76 l72 -7 39 -66 c115 -201 397 -802 381 -816
-19 -17 -701 -467 -704 -465 -11 12 -85 218 -85 238 0 13 16 123 35 245 19
121 43 284 54 361 45 309 62 422 72 473 10 50 12 53 37 48 15 -3 59 -8 99 -11z
m-9207 -151 c0 -4 -16 -61 -34 -128 -34 -119 -116 -422 -151 -561 -10 -38 -21
-75 -24 -82 -4 -7 -76 58 -180 160 l-174 171 81 75 c65 62 262 232 349 302 55
44 133 81 133 63z m2530 -13 c15 -29 12 -58 -6 -65 -9 -3 -42 -6 -75 -6 l-59
0 0 39 c0 45 6 49 77 50 42 1 54 -3 63 -18z m2640 -10 c90 -57 495 -405 488
-420 -9 -18 -339 -334 -344 -329 -16 16 -216 762 -207 772 6 6 31 -3 63 -23z
m930 26 c0 -2 -84 -87 -187 -189 l-187 -186 -80 75 c-45 41 -137 120 -206 176
-69 55 -129 103 -133 107 -4 4 167 8 380 9 213 1 390 4 392 7 5 5 21 6 21 1z
m-6320 -20 c-8 -8 -62 -52 -120 -99 -58 -47 -144 -122 -192 -167 -47 -44 -90
-81 -95 -81 -4 0 -89 81 -188 180 l-180 180 395 0 c328 0 392 -2 380 -13z
m1190 -1 c0 -2 -80 -44 -178 -94 -301 -152 -508 -289 -780 -516 -56 -47 -105
-86 -108 -86 -4 0 -3 8 1 18 4 9 13 40 21 67 32 118 96 359 125 470 17 66 32
126 34 133 4 9 101 12 445 12 242 0 440 -2 440 -4z m4058 -63 c7 -38 17 -81
22 -98 29 -92 148 -531 144 -534 -2 -2 -28 18 -57 45 -92 84 -154 134 -305
241 -181 130 -351 232 -549 330 -84 41 -153 77 -153 79 0 2 199 4 443 4 l442
0 13 -67z m-5747 -335 l20 -27 -113 -129 c-62 -70 -140 -163 -173 -205 l-60
-78 -5 88 c-3 49 -7 213 -8 366 -2 153 -5 293 -9 310 -5 28 14 12 161 -133 92
-91 176 -177 187 -192z m6886 335 c-3 -5 -6 -180 -8 -390 -2 -211 -7 -383 -10
-383 -4 0 -35 37 -70 83 -74 96 -208 248 -258 294 l-36 33 185 185 c102 102
188 185 193 185 4 0 6 -3 4 -7z m-7317 -240 c0 -120 3 -318 7 -439 l6 -221
-26 -34 c-50 -67 -214 -337 -288 -474 -42 -77 -107 -211 -145 -297 -38 -87
-73 -158 -79 -158 -5 0 -59 21 -120 46 -60 25 -162 65 -225 90 -63 24 -129 51
-147 59 l-31 14 15 42 c38 113 179 396 303 614 13 22 28 49 34 60 28 51 111
182 128 201 10 11 18 24 19 30 0 5 20 36 45 69 24 33 61 85 82 115 20 30 42
61 49 70 7 8 25 31 40 51 69 87 184 224 267 314 25 28 46 53 46 58 0 4 5 7 10
7 6 0 10 -79 10 -217z m7575 32 c358 -424 668 -930 851 -1388 l23 -58 -32 -13
c-18 -8 -137 -55 -265 -107 -259 -103 -238 -101 -271 -14 -68 180 -310 630
-437 813 l-44 63 0 447 0 447 63 -65 c34 -36 85 -93 112 -125z m-3887 42 c3
-103 3 -103 -93 -92 l-65 7 0 82 c0 46 3 86 7 90 4 4 39 5 78 4 l70 -3 3 -88z
m5600 -152 c92 -153 336 -624 328 -632 -3 -4 -327 10 -506 22 -41 2 -201 10
-355 16 -154 6 -282 13 -284 15 -5 4 95 116 344 383 65 70 167 181 190 206
153 171 169 186 178 168 6 -10 53 -90 105 -178z m-11036 166 c7 -10 63 -72
123 -137 61 -65 170 -184 244 -264 74 -80 179 -191 234 -247 l101 -103 -55 0
c-46 0 -221 -8 -987 -47 -128 -6 -132 -5 -125 13 5 10 36 75 70 144 61 125
124 244 266 500 43 78 98 160 108 160 4 0 14 -8 21 -19z m5408 -291 l0 -110
-51 0 -50 0 2 85 c3 133 4 135 55 135 l44 0 0 -110z m-153 -57 c-2 -32 -3 -8
-3 52 0 61 1 87 3 58 2 -29 2 -78 0 -110z m233 53 c0 -59 -4 -108 -10 -111 -6
-4 -10 33 -10 104 0 67 4 111 10 111 6 0 10 -41 10 -104z m-3104 -87 c60 -61
137 -138 172 -172 34 -33 62 -64 62 -68 0 -4 -19 -12 -42 -17 -98 -22 -569
-145 -644 -168 -44 -13 -83 -24 -87 -24 -8 0 3 52 12 60 4 3 24 30 46 60 63
88 359 440 370 440 1 0 51 -50 111 -111z m6351 -11 c198 -224 339 -415 321
-434 -3 -3 -73 13 -154 36 -82 23 -225 61 -319 86 -93 24 -201 54 -238 66
l-68 21 172 173 c95 95 176 171 180 169 4 -3 51 -55 106 -117z m-3487 -191 c0
-106 -4 -132 -19 -123 -10 6 -1 236 10 236 5 0 9 -49 9 -113z m160 3 l0 -110
-50 0 -50 0 0 103 c0 57 3 107 7 110 3 4 26 7 50 7 l43 0 0 -110z m90 -11 c0
-84 -3 -110 -12 -107 -9 3 -14 35 -16 103 -3 103 1 130 18 120 6 -4 10 -53 10
-116z m-6707 -622 c-87 -89 -266 -272 -399 -407 -366 -373 -538 -550 -547
-566 -4 -8 -11 -14 -16 -14 -19 0 117 656 185 890 34 115 166 519 196 595 16
44 34 90 39 102 8 22 26 11 354 -208 l345 -231 -157 -161z m13892 496 c118
-319 234 -710 295 -998 49 -231 80 -403 80 -440 l-1 -40 -26 30 c-65 76 -982
1016 -1055 1083 -15 14 -25 28 -23 33 3 4 151 105 330 224 179 120 328 221
331 226 13 21 24 2 69 -118z m-3899 -136 l259 -74 -2 -214 c-3 -369 -15 -648
-25 -614 -32 102 -186 375 -323 575 -84 122 -136 190 -247 322 -54 65 -98 119
-98 121 0 6 121 -27 436 -116z m-6324 11 c-156 -181 -261 -328 -378 -526 -89
-152 -194 -355 -194 -376 0 -8 -4 -17 -9 -20 -5 -4 -10 61 -10 156 -1 90 -3
206 -6 258 -2 52 -7 169 -10 260 l-6 166 63 17 c314 87 606 165 621 166 12 1
-11 -32 -71 -101z m3023 75 c31 -6 105 -40 105 -48 0 -3 -108 -5 -240 -5 -137
0 -240 4 -240 9 0 15 91 43 165 51 70 7 153 4 210 -7z m105 -123 c0 -6 -85
-10 -234 -10 -146 0 -237 4 -241 10 -4 7 77 10 234 10 154 0 241 -4 241 -10z
m-5989 -189 c68 -85 144 -179 169 -210 25 -31 96 -119 159 -195 195 -238 281
-347 281 -355 0 -9 -535 -524 -550 -529 -9 -3 -113 147 -231 334 -36 57 -74
112 -83 122 -9 10 -16 21 -16 25 0 3 -27 47 -60 96 -33 50 -60 97 -60 106 0
46 162 524 224 660 8 17 19 47 26 68 7 21 13 37 15 35 1 -2 58 -72 126 -157z
m9611 54 c149 -241 380 -707 360 -727 -15 -15 -452 -186 -456 -179 -3 4 -1
165 5 357 16 542 21 656 28 647 4 -4 33 -48 63 -98z m-7447 -37 c8 -163 12
-854 5 -861 -10 -10 -440 166 -440 180 0 22 69 180 142 328 71 143 268 484
279 485 4 0 10 -60 14 -132z m9699 40 c62 -133 226 -614 226 -663 0 -11 -97
-166 -215 -345 -118 -178 -215 -328 -215 -332 0 -24 -42 11 -239 200 -119 114
-242 232 -273 261 -32 30 -58 59 -58 64 0 5 46 66 102 135 56 70 129 161 162
202 34 41 124 152 201 245 77 94 169 205 204 249 l64 78 13 -31 c7 -17 20 -45
28 -63z m-6304 -103 c0 -103 -4 -165 -10 -165 -6 0 -10 62 -10 165 0 103 4
165 10 165 6 0 10 -62 10 -165z m98 -3 c2 -157 2 -162 -18 -162 -19 0 -20 6
-20 158 0 87 3 162 7 166 22 22 28 -11 31 -162z m142 3 l0 -165 -40 0 -40 0 0
165 0 165 40 0 40 0 0 -165z m93 34 c-1 -68 -2 -141 -2 -161 -1 -27 -5 -38
-16 -38 -11 0 -14 9 -11 38 3 20 5 95 5 165 1 98 4 128 14 124 9 -3 12 -36 10
-128z m87 -34 c0 -145 -2 -165 -16 -165 -14 0 -15 11 -11 78 4 42 6 116 7 165
0 51 4 87 10 87 6 0 10 -62 10 -165z m-335 -245 c24 -27 7 -70 -29 -70 -39 0
-65 49 -40 75 21 21 47 19 69 -5z m153 8 c7 -7 12 -25 12 -40 0 -21 -6 -29
-26 -34 -36 -9 -74 10 -74 39 0 30 18 47 50 47 14 0 31 -5 38 -12z m136 -1
c38 -27 -2 -95 -41 -71 -22 14 -29 50 -13 70 15 17 31 18 54 1z m101 -37 c0
-18 -6 -35 -12 -37 -9 -3 -13 8 -13 37 0 29 4 40 13 38 6 -3 12 -20 12 -38z
m-525 -6 c0 -28 -3 -35 -17 -32 -31 6 -29 68 2 68 11 0 15 -10 15 -36z m110
-104 c0 -20 -259 -381 -278 -388 -6 -2 18 43 54 100 62 97 144 255 144 277 0
5 8 11 18 13 29 7 62 6 62 -2z m197 -7 c7 -10 37 -52 65 -93 28 -41 73 -106
101 -143 27 -37 47 -70 45 -72 -2 -3 -20 7 -39 21 -49 36 -214 124 -233 124
-20 0 -105 -42 -161 -80 -78 -52 -119 -74 -110 -59 5 8 37 54 72 102 35 48 69
100 77 115 8 15 30 44 49 65 30 32 41 37 77 37 29 0 47 -6 57 -17z m175 -47
c24 -48 122 -213 172 -289 15 -21 15 -26 4 -22 -14 6 -111 130 -227 293 l-51
72 38 0 c36 0 39 -3 64 -54z m-4782 -81 c74 -31 187 -76 250 -102 63 -25 119
-49 125 -54 6 -6 -2 -43 -23 -102 -69 -200 -125 -420 -173 -679 l-21 -117 -97
-89 c-53 -49 -132 -120 -176 -158 -44 -37 -132 -116 -195 -174 -63 -58 -125
-114 -138 -124 l-23 -20 6 100 c22 350 71 698 141 984 36 146 115 412 151 505
11 28 23 58 26 68 4 9 8 17 9 17 2 0 64 -25 138 -55z m9483 -112 c105 -321
184 -679 222 -1013 21 -177 42 -480 34 -480 -9 0 -112 90 -314 275 -67 60
-152 137 -189 170 -38 33 -78 68 -88 77 -13 11 -25 49 -39 120 -35 186 -107
470 -159 628 -28 85 -53 160 -56 165 -2 6 46 32 108 57 62 26 178 74 258 107
80 33 150 60 157 61 6 0 36 -75 66 -167z m-4786 -74 c78 -46 156 -93 175 -104
l33 -20 -177 -3 c-97 -1 -259 -1 -360 0 l-183 3 100 57 c55 31 134 80 175 108
41 27 80 48 85 46 6 -2 74 -42 152 -87z m-5099 -51 c-37 -130 -106 -408 -127
-518 -33 -170 -76 -548 -84 -740 l-2 -55 -68 100 c-81 118 -370 556 -377 570
-3 6 -14 23 -24 39 l-20 28 145 142 c266 260 584 565 590 566 3 0 -12 -60 -33
-132z m10426 -229 c89 -85 205 -198 259 -250 l99 -94 -139 -215 c-76 -118
-186 -286 -243 -373 l-105 -159 -7 109 c-18 292 -57 581 -115 858 -35 168
-105 431 -126 470 -12 23 143 -119 377 -346z m-9313 183 l217 -88 -92 -76
c-76 -63 -443 -387 -538 -476 -23 -21 -26 -22 -23 -6 3 11 14 66 25 124 32
160 56 249 116 438 31 94 61 172 68 172 6 0 109 -40 227 -88z m8133 -30 c74
-226 111 -366 140 -522 8 -41 18 -86 22 -99 5 -18 -31 10 -127 95 -170 152
-461 411 -502 446 -18 15 -27 28 -20 28 6 0 108 38 225 84 117 47 216 83 219
80 4 -2 23 -53 43 -112z m-3844 -84 c0 -10 -85 -13 -398 -12 -505 2 -504 2
-497 14 10 16 895 14 895 -2z m-740 -228 l0 -150 -55 0 -55 0 4 88 c3 48 5
115 5 150 l1 62 50 0 50 0 0 -150z m170 0 l0 -150 -56 0 -57 0 6 148 c4 81 6
148 7 150 0 1 23 2 50 2 l50 0 0 -150z m184 133 c-1 -7 -2 -74 -2 -148 l-2
-135 -55 0 -55 0 0 150 0 151 58 -3 c38 -2 57 -7 56 -15z m166 -133 l0 -150
-49 0 -50 0 -3 140 c-2 77 -1 145 0 150 2 6 26 10 53 10 l49 0 0 -150z m180 0
l0 -150 -60 0 -59 0 0 118 c0 64 2 132 5 150 6 31 7 32 60 32 l54 0 0 -150z
m-4066 50 c-36 -110 -102 -405 -129 -574 -18 -116 -49 -502 -41 -522 4 -12
-39 -14 -259 -14 l-265 0 0 88 c0 82 19 294 39 436 8 58 13 68 52 103 72 64
147 131 319 289 171 156 304 273 307 270 1 -1 -9 -35 -23 -76z m7579 -22 c56
-50 202 -180 324 -290 163 -146 224 -207 232 -231 21 -67 51 -355 51 -494 l0
-73 -244 0 c-134 0 -251 -2 -258 -5 -12 -5 -17 30 -27 187 -20 312 -85 683
-160 912 -16 47 -26 86 -24 86 2 0 50 -41 106 -92z m3231 -363 c256 -268 556
-582 659 -691 l87 -92 -27 -24 c-69 -59 -909 -935 -949 -990 -29 -38 -28 -45
-4 122 10 74 24 196 30 270 6 74 14 169 18 210 11 121 7 763 -7 905 -15 163
-49 477 -57 530 l-7 40 38 -45 c21 -25 119 -130 219 -235z m-13888 218 c-17
-106 -47 -462 -57 -671 -10 -213 -7 -656 6 -797 3 -27 10 -108 16 -180 11
-140 36 -347 46 -380 4 -13 -4 -7 -22 15 -34 42 -131 145 -310 330 -71 75
-184 192 -249 260 -66 69 -184 191 -264 272 -79 81 -142 151 -140 157 3 9 528
567 758 806 63 65 138 143 165 171 28 29 52 53 53 53 2 1 1 -16 -2 -36z m6442
-105 c-3 -8 -23 -13 -53 -13 -30 0 -50 5 -52 13 -4 9 11 12 52 12 41 0 56 -3
53 -12z m156 6 c29 -11 17 -19 -34 -22 -40 -2 -50 0 -50 12 0 17 52 22 84 10z
m196 -6 c0 -9 -18 -13 -55 -14 -39 0 -55 4 -55 13 0 9 16 13 55 13 37 0 55 -4
55 -12z m170 -3 c0 -11 -12 -15 -49 -15 -47 0 -68 9 -54 24 3 3 28 6 55 6 36
0 48 -4 48 -15z m178 -2 c3 -9 -12 -13 -52 -13 -44 0 -56 3 -56 16 0 12 10 14
52 12 30 -2 53 -8 56 -15z m-5938 -318 c101 -154 216 -330 256 -392 41 -61 74
-114 74 -117 0 -3 -308 -7 -685 -8 -377 -2 -685 0 -685 3 0 3 24 27 53 54 71
66 328 310 581 554 116 110 213 198 217 194 4 -5 89 -134 189 -288z m11594
147 c248 -242 465 -453 561 -543 50 -46 97 -93 106 -104 16 -20 15 -20 -664
-17 -375 1 -683 4 -685 6 -2 3 97 159 220 348 123 189 240 369 259 400 18 32
38 58 43 58 5 0 77 -67 160 -148z m-6184 -93 l0 -189 -55 0 -55 0 0 189 c0
189 0 190 23 193 12 2 37 1 55 -1 l32 -3 0 -189z m-170 1 l0 -190 -55 0 -55 0
0 190 0 190 55 0 55 0 0 -190z m350 0 l0 -190 -55 0 -55 0 0 190 0 190 55 0
55 0 0 -190z m170 0 l0 -190 -50 0 -50 0 0 190 0 190 50 0 50 0 0 -190z m180
0 l0 -190 -60 0 -60 0 0 190 0 190 60 0 60 0 0 -190z m4480 -356 c91 -82 182
-163 203 -181 20 -18 37 -34 37 -36 0 -3 -503 3 -506 7 -1 0 -5 66 -9 146 -3
80 -11 186 -16 235 -5 50 -9 94 -9 100 0 5 30 -20 68 -56 37 -36 141 -133 232
-215z m-9305 224 c-11 -85 -25 -275 -25 -355 l0 -83 -237 0 c-131 0 -248 -3
-260 -6 -34 -9 -27 7 16 41 35 27 102 87 400 357 53 48 100 87 104 87 5 1 6
-18 2 -41z m5005 -160 l0 -43 -590 0 -590 0 0 43 0 42 590 0 590 0 0 -42z
m-1047 -201 l2 -87 -27 0 c-22 0 -28 5 -28 21 0 11 -4 28 -9 38 -6 10 -13 41
-17 70 l-7 52 43 -3 42 -3 1 -88z m175 6 l-3 -88 -44 -3 c-28 -2 -47 1 -52 10
-5 7 -9 48 -9 91 l0 77 55 0 56 0 -3 -87z m160 -5 l3 -88 -51 0 -50 0 0 83 c0
46 3 87 7 91 4 4 25 6 48 4 l40 -3 3 -87z m172 1 l0 -90 -52 3 -53 3 -2 88 -3
87 55 0 55 0 0 -91z m160 1 l0 -90 -50 0 -50 0 0 90 0 90 50 0 50 0 0 -90z
m170 -1 l0 -90 -52 3 -53 3 0 80 c0 44 1 83 3 88 2 4 25 7 53 7 l49 0 0 -91z
m190 83 c0 -3 -11 -15 -25 -28 -24 -22 -30 -48 -25 -116 1 -26 -1 -28 -39 -28
l-41 0 0 83 c0 46 3 87 7 91 8 7 123 6 123 -2z m-50 -257 l0 -25 -513 0 c-283
0 -516 3 -519 6 -3 3 -4 14 -1 25 5 18 19 19 519 19 l514 0 0 -25z m-5713 -9
c3 -2 -13 -28 -35 -58 -22 -29 -76 -109 -119 -178 -82 -129 -242 -375 -319
-491 -24 -36 -44 -71 -44 -78 0 -17 -42 20 -205 178 -168 162 -500 479 -589
562 l-69 64 54 5 c65 6 1320 2 1326 -4z m668 5 l81 -1 12 -217 c7 -120 16
-231 19 -248 6 -29 4 -28 -53 26 -115 109 -477 429 -486 429 -5 0 -8 3 -8 8 0
6 90 7 435 3z m699 -99 c13 -205 28 -352 47 -472 22 -138 84 -401 123 -525 14
-43 24 -81 22 -83 -2 -2 -33 23 -67 55 -35 32 -100 90 -144 128 -44 39 -166
148 -271 243 l-192 172 -11 97 c-19 166 -31 324 -31 405 l0 77 123 3 c67 2
183 2 259 0 l136 -3 6 -97z m8355 92 c8 -7 -19 -401 -33 -495 -13 -83 -15 -88
-57 -125 -24 -22 -125 -114 -225 -205 -278 -253 -398 -356 -392 -334 100 342
155 625 173 880 4 50 8 104 10 120 2 17 4 60 4 97 l1 67 68 3 c93 4 445 -2
451 -8z m1959 7 c144 -1 262 -5 262 -9 0 -4 -33 -35 -72 -69 -40 -34 -107 -95
-149 -135 -199 -189 -536 -517 -572 -555 -22 -24 -45 -43 -51 -43 -7 0 -20 15
-31 33 -10 17 -84 132 -164 254 -276 421 -326 498 -329 510 -4 13 264 20 653
16 105 -1 308 -2 453 -2z m-1455 -93 c-60 -50 -137 -119 -173 -152 -134 -125
-269 -246 -273 -246 -3 0 -1 17 3 38 7 30 30 365 30 435 0 16 19 17 260 17
l260 0 -107 -92z m-11458 -179 c161 -151 303 -286 430 -410 72 -69 151 -145
177 -168 l47 -43 -78 -116 c-117 -175 -306 -465 -321 -493 -13 -23 -14 -23
-32 36 -41 133 -106 497 -143 810 -9 72 -19 133 -23 137 -4 3 -24 10 -44 13
l-38 7 0 -56 c0 -71 50 -423 90 -631 53 -277 169 -699 259 -944 21 -58 71
-185 111 -281 39 -96 73 -179 75 -185 4 -10 -141 -82 -149 -74 -24 26 -210
520 -287 764 -111 349 -224 920 -264 1330 -19 195 -36 486 -28 498 3 5 35 -20
72 -55 36 -35 102 -98 146 -139z m1498 123 c40 -37 173 -157 296 -266 138
-123 228 -211 236 -230 7 -17 23 -87 34 -156 29 -168 90 -400 157 -595 31 -88
61 -175 67 -194 14 -42 29 -30 -240 -178 -112 -61 -211 -117 -219 -124 -12
-10 -18 -10 -29 2 -44 46 -227 606 -284 869 -42 193 -87 529 -96 720 -3 69 -8
146 -11 173 -3 30 -1 47 6 47 6 0 43 -30 83 -68z m4457 -977 l0 -1045 -95 0
-95 0 0 922 0 922 52 94 c57 103 97 152 122 152 15 0 16 -94 16 -1045z m250
1033 c0 -5 0 -474 0 -1043 l0 -1035 -92 0 -93 0 0 1045 0 1046 93 -3 c50 -2
92 -6 92 -10z m708 3 l52 -1 0 -1040 0 -1040 -95 0 -95 0 0 1039 c0 982 1
1040 18 1043 9 2 28 3 42 1 14 -1 49 -2 78 -2z m4687 -301 c-25 -299 -65 -538
-135 -820 -38 -151 -120 -425 -145 -485 -7 -16 -28 -66 -46 -110 -18 -44 -36
-84 -39 -88 -4 -4 -78 32 -166 81 -87 48 -199 110 -249 137 -49 26 -91 49 -93
50 -1 1 11 33 27 72 82 199 192 603 231 846 l13 78 101 92 c56 51 171 153 256
227 85 74 177 156 205 182 l50 47 3 -62 c2 -34 -4 -145 -13 -247z m1648 183
c-5 -160 -35 -448 -73 -703 -88 -592 -236 -1126 -452 -1635 -28 -66 -53 -122
-55 -124 -2 -3 -36 13 -77 34 l-73 39 43 97 c152 343 311 856 398 1279 49 241
96 566 96 667 0 48 -2 53 -22 53 -60 -1 -65 -6 -72 -93 -15 -176 -78 -546
-135 -791 -16 -70 -32 -130 -34 -132 -2 -2 -41 55 -88 127 -46 72 -139 213
-206 314 l-122 184 37 32 c20 18 138 130 262 249 421 405 555 530 566 530 8 0
10 -38 7 -127z m-6793 -923 l0 -1040 -90 0 -90 0 0 1040 0 1040 90 0 90 0 0
-1040z m250 0 l0 -1040 -90 0 -90 0 0 1040 0 1040 90 0 90 0 0 -1040z m5229
745 c43 -66 118 -181 166 -255 48 -74 103 -158 122 -187 29 -44 32 -54 22 -70
-7 -10 -80 -81 -163 -157 -83 -76 -203 -189 -266 -250 -176 -171 -294 -274
-288 -251 154 541 213 869 234 1288 l7 139 44 -69 c24 -37 79 -122 122 -188z
m-10644 -160 c35 -299 86 -551 176 -870 56 -197 54 -185 22 -149 -15 17 -59
59 -98 94 -38 35 -160 149 -270 255 -110 105 -233 223 -274 261 l-74 70 48 75
c27 41 76 117 110 169 34 52 110 172 170 265 59 94 119 186 134 205 l26 35 7
-135 c4 -74 14 -198 23 -275z m5813 198 c38 -71 80 -148 92 -173 l23 -45 4
-802 4 -803 -101 0 -100 0 0 975 c1 536 3 975 4 975 2 0 35 -57 74 -127z
m-1408 -973 l0 -850 -90 0 -90 0 -1 418 c-1 229 -1 530 -1 669 l2 252 87 181
c48 99 89 180 90 180 2 0 3 -382 3 -850z m-3470 514 c25 -23 81 -72 125 -110
44 -38 130 -114 191 -169 61 -55 147 -133 193 -174 45 -40 80 -78 78 -84 -2
-6 -39 -30 -83 -55 -137 -76 -333 -182 -338 -182 -21 0 -178 502 -217 695 -11
55 -23 111 -26 125 -6 23 -5 24 13 10 10 -8 39 -34 64 -56z m5121 -46 c21 -43
59 -123 84 -179 l45 -102 0 -518 0 -519 -95 0 -95 0 -1 688 c0 378 -3 701 -5
717 -4 29 -4 29 12 10 8 -11 33 -55 55 -97z m3514 -8 c-23 -113 -41 -187 -91
-365 -25 -89 -107 -318 -122 -343 -6 -9 -61 17 -213 103 -112 64 -207 120
-211 124 -5 4 67 74 159 156 92 83 241 217 331 298 91 81 166 146 168 145 1
-2 -8 -55 -21 -118z m-9856 -369 c149 -145 271 -267 271 -272 0 -4 -84 -112
-187 -241 -389 -485 -515 -643 -524 -660 -5 -10 -13 -18 -18 -18 -17 0 -167
407 -243 660 l-35 115 116 177 c64 98 165 252 224 343 60 91 112 165 117 163
4 -2 130 -122 279 -267z m11535 -75 l224 -339 -20 -71 c-46 -165 -223 -657
-255 -710 -3 -5 -15 7 -27 26 -25 41 -155 208 -321 413 -66 83 -143 179 -170
215 -28 36 -90 112 -139 169 l-90 104 125 116 c68 64 194 184 279 268 85 84
158 152 163 150 4 -1 108 -155 231 -341z m-7094 -286 l0 -580 -95 0 -96 0 3
388 c3 374 4 388 25 432 12 25 52 111 89 193 37 81 68 147 70 147 2 0 4 -261
4 -580z m-5820 -295 c283 -290 381 -396 375 -405 -3 -5 -70 -51 -148 -103
-277 -183 -501 -329 -512 -333 -22 -9 -184 457 -274 786 -62 229 -117 470
-145 640 -9 52 -19 111 -22 130 -6 37 -33 63 726 -715z m14504 708 c-80 -461
-171 -827 -296 -1193 -55 -161 -125 -350 -133 -358 -2 -2 -81 48 -177 110
-330 218 -463 305 -486 317 -22 12 -16 20 191 229 117 119 256 262 308 317
196 206 592 615 596 615 2 0 1 -17 -3 -37z m-6478 -411 l64 -173 0 -204 0
-205 -90 0 -89 0 0 433 1 432 25 -55 c14 -30 54 -133 89 -228z m-4811 -249
c-4 -219 -8 -409 -10 -423 -1 -14 -3 -49 -4 -77 0 -29 -4 -53 -9 -53 -9 0
-136 211 -221 367 -89 163 -173 342 -166 354 4 5 37 25 73 44 37 19 126 68
197 109 72 41 134 75 139 75 5 1 6 -165 1 -396z m7561 285 c179 -99 203 -115
198 -133 -11 -33 -128 -273 -184 -375 -61 -110 -189 -318 -200 -325 -10 -6
-18 174 -25 540 -3 160 -8 316 -11 348 -4 42 -3 57 6 57 7 0 105 -51 216 -112z
m-7231 -443 c124 -197 374 -531 440 -587 18 -15 18 -17 3 -18 -10 0 -37 6 -60
14 -55 18 -305 93 -473 141 -160 46 -160 46 -158 81 1 16 5 203 8 416 l7 386
82 -161 c45 -89 113 -211 151 -272z m6929 145 c4 -157 9 -347 12 -422 5 -124
4 -138 -11 -138 -9 0 -128 -32 -263 -71 -333 -95 -422 -119 -422 -111 0 3 10
16 23 27 33 29 211 252 295 370 139 195 294 473 346 619 3 10 8 17 10 15 3 -2
7 -132 10 -289z m1923 -135 c347 -436 404 -509 422 -542 23 -44 34 -49 -434
205 -278 151 -545 296 -602 329 l-42 23 52 110 c51 108 55 113 157 205 80 71
108 91 116 82 7 -7 155 -192 331 -412z m-10593 351 c130 -117 147 -139 192
-241 24 -54 43 -100 41 -101 -2 -2 -400 -217 -612 -332 -66 -35 -124 -68 -130
-72 -20 -15 -317 -170 -327 -170 -5 0 -6 10 -3 21 11 33 743 958 759 959 5 0
41 -29 80 -64z m3765 -266 l-2 -270 -87 0 -87 0 22 88 c13 48 48 164 79 258
31 94 56 176 56 182 0 7 5 12 10 12 8 0 10 -87 9 -270z m-2754 -20 c100 -201
216 -401 319 -550 l66 -95 -6 -445 c-4 -245 -7 -446 -8 -448 -4 -3 -230 258
-327 378 -113 141 -318 450 -419 635 -99 180 -217 413 -222 438 -2 15 43 44
222 142 124 69 236 131 250 138 17 9 26 10 29 3 2 -6 45 -94 96 -196z m8562
39 c169 -91 192 -106 187 -124 -13 -42 -164 -344 -217 -435 -189 -324 -334
-535 -519 -757 -133 -160 -222 -261 -230 -262 -5 -1 -8 169 -9 377 0 207 -3
405 -6 440 l-5 63 90 137 c131 200 161 253 285 503 l112 226 60 -32 c33 -17
147 -79 252 -136z m-3157 -286 c0 -2 -16 -3 -35 -3 l-35 0 0 73 c0 126 10 132
41 26 16 -52 29 -95 29 -96z m3805 -63 c55 -29 210 -115 345 -189 135 -75 272
-151 305 -168 33 -18 116 -63 184 -102 69 -39 130 -72 135 -74 24 -8 -293
-603 -423 -797 -21 -30 -78 -116 -129 -191 -346 -518 -882 -1101 -1343 -1460
-44 -35 -115 -91 -158 -125 -159 -127 -514 -362 -741 -493 -1002 -575 -2187
-892 -3331 -891 -339 0 -645 26 -999 86 -595 101 -1049 232 -1590 459 -232 97
-677 329 -887 461 -32 20 -87 55 -123 78 -398 252 -882 650 -1229 1012 -363
378 -724 863 -1000 1344 -104 180 -268 512 -255 517 5 2 266 143 580 314 636
347 702 382 713 375 4 -3 25 -45 47 -93 108 -243 324 -613 489 -838 501 -684
1118 -1228 1819 -1605 224 -120 369 -187 581 -269 537 -209 1040 -314 1670
-351 257 -15 574 -1 890 41 543 72 1144 257 1636 504 731 368 1411 942 1911
1615 115 155 268 390 346 530 67 121 215 419 227 458 7 25 -15 35 330 -148z
m-3710 -48 c28 -20 53 -38 57 -41 4 -4 -702 -8 -1569 -9 -867 -1 -1575 -1
-1572 2 2 2 29 21 59 43 l55 38 1450 5 c798 3 1455 3 1460 1 6 -2 33 -20 60
-39z m-7834 -201 c21 -62 21 -70 10 -250 -6 -102 -15 -262 -21 -356 -5 -93
-12 -206 -15 -250 -2 -44 -5 -96 -5 -116 l0 -36 -202 68 c-297 101 -282 94
-303 137 -57 119 -195 439 -195 454 0 13 52 48 465 315 250 163 223 159 266
34z m13124 -56 c411 -262 434 -278 428 -300 -9 -32 -106 -250 -168 -376 l-56
-115 -132 -43 c-73 -24 -179 -61 -236 -82 -57 -22 -106 -38 -107 -36 -7 7 -13
81 -19 247 -3 96 -13 293 -20 437 l-15 262 32 86 31 85 36 -22 c20 -12 122
-76 226 -143z m-5205 141 c0 -2 -3 -11 -6 -20 -6 -15 -154 -16 -1580 -16
-1561 0 -1574 0 -1594 20 l-20 20 1600 0 c880 0 1600 -2 1600 -4z m-3127 -293
c-2 -103 -4 -192 -5 -198 -1 -5 -4 78 -8 185 -5 198 -5 214 9 206 4 -3 6 -90
4 -193z m127 170 c0 -16 3 -106 6 -201 l6 -173 -34 3 -33 3 -3 198 -2 197 30
0 c26 0 30 -4 30 -27z m410 -65 c0 -51 2 -104 5 -118 3 -15 0 -12 -7 8 -23 66
-120 121 -185 106 -69 -16 -115 -64 -134 -139 -4 -18 -7 24 -8 103 l-1 132
165 0 165 0 0 -92z m392 -5 l3 -98 -42 42 c-80 80 -167 80 -242 -2 l-41 -45 0
100 0 100 159 0 160 0 3 -97z m368 4 l0 -94 -39 38 c-80 76 -158 74 -228 -5
l-38 -43 3 98 3 99 150 0 149 0 0 -93z m387 -27 c1 -79 -1 -106 -7 -86 -19 61
-95 116 -161 116 -41 0 -114 -43 -133 -78 -14 -25 -15 -21 -16 71 l0 98 158
-3 157 -3 2 -115z m379 -25 c2 -103 0 -127 -6 -91 -27 158 -231 186 -307 43
-7 -13 -9 14 -7 85 2 57 3 104 4 106 0 1 71 1 158 0 l157 -3 1 -140z m384 43
l0 -102 -35 41 c-48 56 -111 80 -166 64 -22 -7 -58 -30 -80 -52 l-39 -39 0 95
0 95 160 0 160 0 0 -102z m409 -45 c-1 -112 -3 -136 -9 -100 -5 27 -16 59 -24
72 -23 35 -101 77 -144 79 -51 1 -126 -44 -152 -92 -16 -28 -20 -31 -16 -12 3
14 6 64 6 113 l0 87 170 0 170 0 -1 -147z m135 -55 l6 -198 -35 0 -35 0 0 201
0 200 29 -3 30 -3 5 -197z m86 2 c0 -127 -4 -200 -10 -200 -6 0 -10 73 -10
200 0 127 4 200 10 200 6 0 10 -73 10 -200z m-4745 107 c149 -41 314 -88 368
-103 l97 -28 -37 -40 c-21 -22 -96 -100 -168 -174 l-130 -134 -58 64 c-193
210 -387 452 -387 483 0 21 -20 26 315 -68z m6895 76 c0 -31 -219 -305 -397
-496 l-54 -59 -169 168 c-94 92 -170 170 -170 173 0 3 105 35 233 70 127 36
297 84 377 107 151 43 180 49 180 37z m-3665 -147 c47 -20 67 -65 73 -158 l5
-78 -117 0 -116 0 0 75 c0 112 32 162 113 174 4 0 23 -5 42 -13z m-1124 -19
c41 -28 58 -71 58 -154 l1 -63 -115 0 -115 0 0 51 c0 78 18 136 52 164 37 31
75 32 119 2z m389 3 c34 -24 47 -61 54 -152 l5 -68 -114 0 -114 0 -7 36 c-25
136 83 250 176 184z m374 -1 c42 -33 56 -71 56 -149 l0 -70 -115 0 -115 0 0
40 c0 156 88 247 174 179z m747 11 c32 -17 52 -71 58 -153 l6 -78 -115 3 -115
3 2 64 c2 88 9 109 45 143 32 30 82 37 119 18z m389 -6 c41 -25 57 -61 65
-146 l7 -78 -121 0 -121 0 0 56 c0 77 18 130 53 160 33 28 77 31 117 8z m394
-5 c42 -33 56 -71 56 -149 l0 -70 -116 0 -117 0 5 73 c5 82 21 120 64 147 38
26 75 25 108 -1z m-4630 -124 c28 -33 104 -120 169 -193 106 -118 117 -134
105 -150 -20 -26 -353 -351 -356 -348 -3 4 -5 249 -3 556 1 232 2 243 18 220
9 -14 39 -52 67 -85z m7118 -22 c3 -158 3 -262 0 -489 l-2 -191 -173 171 c-96
94 -179 179 -186 188 -12 16 -5 26 53 88 69 73 258 298 279 331 6 10 15 19 19
19 5 0 9 -53 10 -117z m-9882 39 c0 -29 138 -301 267 -527 22 -38 62 -108 88
-155 26 -47 72 -123 102 -169 30 -46 48 -81 41 -79 -7 3 -138 47 -292 98
l-279 93 6 81 c3 45 14 222 23 394 15 264 20 311 31 296 7 -10 13 -24 13 -32z
m12606 -299 c10 -186 19 -362 19 -392 l0 -54 -195 -62 c-107 -34 -232 -76
-278 -94 -99 -37 -112 -38 -85 -8 18 20 32 42 98 153 153 258 365 666 395 757
6 20 15 37 19 37 4 0 16 -152 27 -337z m-9005 -18 c38 -148 82 -316 98 -372
15 -57 25 -103 21 -103 -19 0 -184 136 -411 337 l-126 112 171 171 c144 143
172 166 174 147 2 -12 35 -143 73 -292z m5768 -30 c-2 -25 -501 -445 -529
-445 -4 0 5 48 22 108 31 116 152 596 163 651 l7 34 169 -169 c93 -93 169
-173 168 -179z m-1478 96 c60 -40 109 -74 107 -75 -2 0 -813 1 -1802 4 l-1799
5 104 70 104 70 1588 0 1588 0 110 -74z m99 -156 l-23 -25 -1796 3 -1796 2 -3
23 -3 22 1822 0 1822 0 -23 -25z m-4760 -102 c78 -71 206 -181 265 -227 28
-22 54 -43 59 -48 6 -4 -176 -8 -404 -8 l-414 0 189 193 190 192 30 -26 c17
-14 55 -48 85 -76z m6405 -93 l191 -190 -408 0 c-224 0 -408 2 -408 5 0 2 64
58 143 124 78 65 174 149 212 185 39 36 72 65 75 66 2 0 90 -85 195 -190z
m-5235 -136 c0 -168 -3 -243 -10 -239 -10 6 -12 458 -3 478 11 21 13 -13 13
-239z m165 -4 l0 -245 -52 -3 -53 -3 0 251 0 251 53 -3 52 -3 0 -245z m185 0
l0 -250 -54 0 -55 0 -3 243 c-2 133 -2 245 0 250 2 4 28 7 58 7 l54 0 0 -250z
m188 3 l-3 -248 -57 -3 -58 -3 0 251 0 250 60 0 60 0 -2 -247z m182 -3 l0
-251 -57 3 -58 3 -3 235 c-1 129 0 240 2 247 4 8 25 13 61 13 l55 0 0 -250z
m180 0 l0 -250 -55 0 -55 0 0 250 0 250 55 0 55 0 0 -250z m190 0 l0 -250 -60
0 -60 0 0 243 c0 134 3 247 7 250 3 4 30 7 60 7 l53 0 0 -250z m180 1 l0 -249
-57 2 -58 1 3 240 c1 132 2 243 2 248 0 4 25 7 55 7 l55 0 0 -249z m185 -1 l0
-245 -57 -3 -58 -2 0 250 0 251 58 -3 57 -3 0 -245z m185 -1 l0 -251 -57 4
-58 3 -2 215 c-2 118 -3 221 -3 228 0 6 -7 12 -16 12 -9 0 -14 6 -12 13 5 13
50 24 111 26 l37 1 0 -251z m195 194 c-2 -32 -4 -145 -5 -250 l0 -193 -60 0
-60 0 0 250 0 250 65 0 65 0 -5 -57z m185 -193 l0 -250 -57 3 -58 3 -3 247 -2
247 60 0 60 0 0 -250z m180 -1 l0 -251 -57 4 -58 3 1 160 c0 88 1 199 2 248
l2 87 55 0 55 0 0 -251z m183 209 c2 -24 4 -135 3 -248 l-1 -205 -57 -3 -58
-3 0 251 0 250 54 0 54 0 5 -42z m187 -208 l0 -251 -57 3 -58 3 -3 248 -2 247
60 0 60 0 0 -250z m185 0 l0 -245 -57 -3 -58 -3 0 251 0 251 58 -3 57 -3 0
-245z m183 3 l-3 -248 -55 0 -55 0 -3 248 -2 247 60 0 60 0 -2 -247z m182 -3
l0 -251 -57 3 -58 3 -3 235 c-1 129 0 240 2 247 4 8 25 13 61 13 l55 0 0 -250z
m183 0 l-3 -245 -52 1 -53 1 -3 247 -2 247 57 -3 58 -3 -2 -245z m185 3 l-3
-248 -55 0 -55 0 -3 235 c-1 129 0 240 2 247 4 8 25 13 61 13 l55 0 -2 -247z
m87 2 c0 -189 -3 -245 -12 -245 -10 0 -13 56 -13 245 0 189 3 245 13 245 9 0
12 -56 12 -245z m-8353 5 c101 -33 189 -64 196 -69 13 -8 10 -126 -11 -489 -2
-31 -11 -20 -103 130 -134 217 -274 463 -274 482 0 9 -3 10 192 -54z m13508
54 c0 -19 -228 -418 -324 -568 l-51 -80 -6 90 c-4 49 -10 166 -14 260 l-7 172
193 65 c207 70 209 70 209 61z m-7210 -385 c-488 -67 -953 -161 -1449 -294
-51 -14 -99 -25 -105 -25 -16 0 -5 105 12 122 8 8 12 47 12 110 l0 98 798 -1
c513 -1 774 -5 732 -10z m2053 -81 c2 -51 12 -119 21 -151 25 -84 21 -89 -61
-66 -527 148 -918 226 -1488 298 -45 5 216 9 727 10 l797 1 4 -92z m-1683 37
c448 -57 718 -101 995 -161 255 -55 432 -99 410 -102 -43 -5 -3025 -7 -3025
-1 0 3 35 13 78 22 42 9 149 32 237 51 283 62 583 116 870 157 154 22 281 42
284 45 7 6 27 5 151 -11z m5552 -822 c-2 -384 -4 -698 -5 -699 -1 -1 -189 -5
-417 -8 -228 -3 -536 -9 -685 -12 -236 -5 -268 -4 -255 9 8 8 78 65 155 127
273 219 574 508 817 785 55 63 319 396 355 448 18 26 34 47 35 47 2 0 2 -314
0 -697z m-11095 660 c9 -16 44 -63 78 -107 33 -43 76 -100 95 -126 45 -61 122
-149 297 -341 232 -256 520 -523 806 -748 37 -29 67 -55 67 -57 0 -4 -932 6
-1015 11 -27 2 -119 3 -202 4 l-153 1 -2 695 c-2 382 0 695 4 695 4 0 15 -12
25 -27z m7313 -188 c202 -55 660 -203 660 -215 0 -4 -39 -25 -88 -48 l-87 -42
-2265 0 -2265 0 -109 58 c-60 32 -111 62 -113 68 -3 9 131 56 432 152 107 35
116 36 310 41 110 3 927 7 1815 9 l1615 2 95 -25z m356 -372 c-16 -16 -370
-157 -546 -216 -364 -124 -772 -208 -1210 -248 -173 -16 -610 -16 -765 0 -569
58 -1054 173 -1505 358 -74 30 -152 64 -172 74 -21 10 -46 19 -58 19 -11 0
-20 4 -20 9 0 5 932 9 2141 9 1177 0 2138 -2 2135 -5z m-5964 -1079 c108 -77
343 -219 543 -329 77 -42 144 -80 148 -85 6 -6 -303 -20 -532 -24 l-43 -1 -87
200 c-48 110 -100 224 -114 253 -15 28 -23 52 -18 52 6 0 52 -30 103 -66z
m7735 -6 c-19 -40 -69 -153 -113 -251 l-79 -179 -220 9 c-121 4 -250 8 -287 8
-38 0 -68 3 -68 8 0 4 4 7 10 7 32 0 607 345 710 426 30 24 61 43 67 44 8 0 0
-27 -20 -72z m-6758 -542 c168 -77 422 -187 474 -205 l48 -17 -108 -74 c-59
-41 -211 -149 -338 -240 -126 -92 -249 -179 -272 -194 l-41 -27 -161 77 -161
77 -41 105 c-22 58 -81 197 -129 309 -58 133 -85 205 -77 208 7 2 89 6 182 9
227 8 439 18 443 21 15 12 95 -9 181 -49z m6241 33 c151 -6 277 -13 279 -15 3
-3 -44 -117 -99 -239 -76 -169 -129 -294 -141 -332 -11 -41 -17 -45 -108 -91
-53 -27 -128 -64 -168 -82 l-71 -32 -99 74 c-54 41 -190 140 -303 220 -113 79
-235 167 -272 193 l-67 49 57 24 c164 69 455 194 512 221 59 28 72 31 135 27
39 -3 194 -10 345 -17z m-7050 -276 c113 -259 127 -293 117 -293 -8 0 -313
170 -417 233 -251 150 -454 290 -428 295 13 3 234 11 519 20 l95 3 114 -258z
m7922 240 l147 -6 -43 -33 c-115 -88 -372 -245 -778 -478 -27 -15 -48 -22 -48
-17 0 9 43 111 186 440 l49 113 170 -6 c94 -3 236 -9 317 -13z m-6131 -620
c527 -531 683 -692 678 -697 -5 -5 -544 104 -659 134 -158 40 -354 99 -555
166 -225 74 -588 215 -577 224 5 3 147 104 318 226 336 240 426 303 434 303 3
1 166 -160 361 -356z m4124 347 c3 -5 72 -56 153 -112 176 -122 480 -338 541
-384 42 -33 43 -34 20 -42 -13 -5 -49 -18 -79 -30 -30 -11 -108 -40 -172 -66
-119 -46 -433 -153 -588 -199 -197 -60 -699 -175 -835 -193 -27 -4 -58 -11
-68 -16 -47 -24 -18 14 126 164 288 302 872 889 884 888 6 0 15 -4 18 -10z
m-3079 -309 c434 -57 900 -69 1314 -35 83 6 402 41 465 50 38 6 21 -13 -457
-492 l-498 -499 -497 498 c-274 273 -493 497 -487 497 7 0 79 -9 160 -19z"/>
<path d="M14877 7220 c-55 -69 -55 -52 8 -215 24 -60 61 -159 84 -220 22 -60
59 -157 81 -215 22 -57 40 -107 40 -111 0 -3 -51 2 -112 11 -463 73 -565 89
-579 95 -11 4 -32 -12 -69 -55 -50 -58 -53 -63 -39 -85 8 -13 48 -52 90 -86
42 -35 159 -134 260 -220 101 -85 226 -191 278 -234 l93 -79 61 63 61 63 -64
59 c-86 79 -342 296 -391 333 -21 16 -38 31 -36 32 1 1 90 -11 197 -27 107
-16 242 -36 300 -45 l105 -16 27 31 c16 17 28 38 28 46 0 9 -34 102 -76 208
-42 105 -84 215 -94 242 -10 28 -30 77 -45 109 l-26 59 43 -35 c48 -39 290
-229 413 -324 l81 -62 53 71 54 71 -39 34 c-21 19 -64 53 -94 75 -30 22 -122
93 -205 157 -82 64 -212 164 -288 223 -76 59 -142 107 -145 107 -4 0 -29 -27
-55 -60z"/>
<path d="M5355 7115 c-441 -326 -565 -420 -563 -427 6 -15 103 -137 111 -138
4 0 56 36 115 80 59 44 109 80 112 80 3 -1 37 -44 75 -96 143 -195 257 -275
395 -277 119 -2 240 75 295 188 64 130 36 258 -97 445 -75 107 -222 300 -228
300 -3 -1 -99 -70 -215 -155z m335 -271 c55 -89 68 -143 50 -198 -24 -74 -103
-135 -174 -136 -43 0 -104 41 -167 112 -63 72 -139 173 -139 185 1 4 65 56
143 115 l142 106 48 -51 c26 -29 70 -88 97 -133z"/>
<path d="M6390 6158 c-36 -17 -90 -41 -120 -53 -30 -13 -134 -58 -230 -100
-96 -42 -213 -93 -260 -112 -46 -19 -127 -55 -180 -80 l-95 -45 70 -64 c39
-35 73 -64 78 -64 4 0 52 22 106 49 l99 50 48 -45 c27 -25 92 -83 144 -129 52
-46 115 -101 139 -122 l45 -39 -31 -100 c-17 -54 -34 -109 -38 -121 -5 -17 7
-32 69 -82 41 -34 77 -61 80 -61 2 0 12 26 21 58 9 31 25 86 35 122 11 36 51
173 90 305 39 132 82 278 96 325 14 47 34 112 45 144 18 57 18 60 1 79 -25 29
-132 117 -140 116 -4 0 -36 -14 -72 -31z m34 -185 c-4 -10 -37 -105 -73 -210
-36 -106 -69 -193 -73 -193 -5 0 -52 40 -105 88 -54 49 -110 99 -125 112 -16
13 -28 27 -28 31 0 3 66 37 148 73 81 37 170 78 197 91 60 29 69 30 59 8z"/>
<path d="M13898 6094 c-38 -31 -68 -62 -68 -68 0 -6 29 -45 63 -86 252 -299
327 -409 342 -501 24 -141 -155 -307 -291 -271 -91 25 -107 40 -329 322 -28
36 -77 100 -109 142 -32 43 -62 80 -67 84 -5 3 -40 -19 -78 -48 -58 -44 -67
-56 -59 -71 12 -23 218 -293 314 -412 95 -118 143 -153 249 -181 146 -39 300
10 425 137 94 94 124 159 128 279 5 136 -12 177 -150 352 -29 36 -97 122 -150
190 -53 67 -109 138 -125 156 l-28 33 -67 -57z"/>
<path d="M7188 5582 c-9 -9 -41 -62 -73 -117 -31 -55 -85 -147 -119 -205 -51
-86 -145 -250 -267 -467 -18 -33 -18 -33 4 -47 36 -22 136 -76 141 -76 2 0 32
48 65 108 33 59 65 113 70 121 7 11 30 2 118 -48 l110 -61 12 -153 c7 -83 13
-163 14 -176 2 -20 20 -34 95 -74 51 -27 95 -47 98 -44 3 2 -5 80 -16 173 -11
93 -22 178 -23 189 -2 17 6 21 63 28 130 16 221 78 277 187 25 48 28 66 28
145 0 78 -4 97 -27 140 -48 92 -136 162 -353 282 -60 33 -131 73 -156 87 -43
25 -47 25 -61 8z m135 -233 c130 -66 239 -144 262 -189 19 -36 19 -110 1 -153
-27 -67 -113 -114 -188 -104 -70 9 -298 130 -298 158 0 11 170 309 176 309 3
0 24 -10 47 -21z"/>
<path d="M12845 5349 c-33 -21 -64 -40 -69 -42 -8 -3 80 -190 104 -222 4 -5
65 -116 135 -245 70 -129 145 -268 167 -307 21 -40 43 -75 47 -77 12 -8 156
79 154 92 -3 11 -201 375 -347 637 -31 55 -68 124 -84 152 -15 29 -31 53 -37
52 -5 0 -37 -18 -70 -40z"/>
<path d="M8123 5033 c-12 -32 -25 -66 -28 -75 -5 -14 17 -24 132 -62 190 -62
176 -54 168 -85 -3 -14 -39 -118 -80 -231 -76 -213 -162 -472 -167 -503 -2
-14 14 -24 82 -46 47 -16 88 -26 93 -22 4 4 32 86 62 182 67 211 190 578 197
584 2 3 67 -15 144 -40 76 -24 144 -45 150 -45 15 0 59 130 47 140 -4 5 -109
41 -233 80 -124 40 -295 96 -381 126 -86 30 -158 54 -160 54 -2 0 -14 -26 -26
-57z"/>
<path d="M12141 5023 c-35 -7 -465 -154 -474 -162 -4 -4 18 -79 49 -167 31
-87 101 -292 156 -454 56 -162 101 -296 102 -297 4 -6 176 54 176 62 0 5 -19
65 -41 133 -24 70 -38 127 -33 131 5 4 52 23 104 41 254 89 354 165 389 295
35 131 -28 308 -132 369 -77 45 -204 66 -296 49z m159 -176 c14 -7 40 -35 58
-62 31 -45 34 -55 30 -107 -7 -101 -68 -151 -268 -223 -60 -22 -106 -33 -111
-28 -5 5 -34 83 -64 174 -50 147 -54 165 -39 176 16 12 218 78 264 87 34 6 99
-2 130 -17z"/>
<path d="M9257 4757 c-3 -8 -26 -138 -52 -288 -26 -151 -62 -356 -81 -457 -20
-101 -33 -190 -31 -197 5 -13 172 -43 182 -33 3 3 30 151 60 329 29 178 65
390 79 471 14 81 26 149 26 151 0 2 -35 10 -77 17 -42 6 -82 14 -89 17 -6 2
-14 -2 -17 -10z"/>
<path d="M11175 4765 c-5 -2 -35 -9 -66 -15 l-55 -11 12 -77 c7 -42 28 -167
48 -277 20 -110 53 -290 73 -400 20 -110 37 -201 38 -203 4 -5 163 20 175 28
7 5 -8 108 -50 326 -33 175 -72 389 -88 474 -27 149 -28 155 -52 157 -14 1
-29 0 -35 -2z"/>
<path d="M10197 4684 c-189 -45 -337 -184 -383 -359 -19 -68 -17 -200 2 -266
48 -159 157 -276 310 -330 84 -29 247 -37 334 -15 85 22 177 67 230 114 l42
37 -66 59 -66 58 -41 -37 c-56 -50 -121 -77 -200 -83 -229 -16 -413 181 -369
394 25 119 81 193 182 239 141 64 274 50 397 -43 l33 -26 53 59 54 60 -37 33
c-49 43 -166 99 -232 112 -72 14 -173 11 -243 -6z"/>
</g>
</svg>
